HIERARCHY
ROOT Hips
{
	OFFSET 0.00 0.00 0.00
	CHANNELS 6 Xposition Yposition Zposition Xrotation Yrotation Zrotation
	JOINT RightUpLeg
	{
		OFFSET -3.76699 0.00000 0.00000
		CHANNELS 3 Xrotation Yrotation Zrotation
		JOINT RightLeg
		{
			OFFSET 0.00000 -18.01768 0.00000
			CHANNELS 3 Xrotation Yrotation Zrotation
			JOINT RightFoot
			{
				OFFSET 0.00000 -16.88108 0.00000
				CHANNELS 3 Xrotation Yrotation Zrotation
				JOINT RightToeBase
				{
					OFFSET 0.00000 -1.49359 5.57418
					CHANNELS 3 Xrotation Yrotation Zrotation
					End Site
					{
						OFFSET 0.00000 0.00000 2.95275
					}
				}
			}
		}
	}
	JOINT LeftUpLeg
	{
		OFFSET 3.76699 0.00000 0.00000
		CHANNELS 3 Xrotation Yrotation Zrotation
		JOINT LeftLeg
		{
			OFFSET 0.00000 -18.01768 0.00000
			CHANNELS 3 Xrotation Yrotation Zrotation
			JOINT LeftFoot
			{
				OFFSET 0.00000 -16.88108 0.00000
				CHANNELS 3 Xrotation Yrotation Zrotation
				JOINT LeftToeBase
				{
					OFFSET 0.00000 -1.49359 5.57418
					CHANNELS 3 Xrotation Yrotation Zrotation
					End Site
					{
						OFFSET 0.00000 0.00000 2.95275
					}
				}
			}
		}
	}
	JOINT Spine
	{
		OFFSET 0.00000 7.77970 0.00000
		CHANNELS 3 Xrotation Yrotation Zrotation
		JOINT RightShoulder
		{
			OFFSET 0.00000 10.94176 0.00000
			CHANNELS 3 Xrotation Yrotation Zrotation
			JOINT RightArm
			{
				OFFSET -7.70894 0.00000 0.00000
				CHANNELS 3 Xrotation Yrotation Zrotation
				JOINT RightForeArm
				{
					OFFSET -11.52135 0.00000 0.00000
					CHANNELS 3 Yrotation Zrotation Xrotation
					JOINT RightHand
					{
						OFFSET -10.17590 0.00000 0.00000
						CHANNELS 3 Xrotation Yrotation Zrotation
						End Site
						{
							OFFSET -3.93700 0.00000 0.00000
						}
						JOINT RightHandThumb1
						{
							OFFSET 0.00000 0.00000 0.00000
							CHANNELS 3 Xrotation Zrotation Yrotation
							End Site
							{
								OFFSET 0.00000 0.00000 3.93700
							}
						}
					}
				}
			}
		}
		JOINT LeftShoulder
		{
			OFFSET 0.00000 10.94176 0.00000
			CHANNELS 3 Xrotation Yrotation Zrotation
			JOINT LeftArm
			{
				OFFSET 7.70894 0.00000 0.00000
				CHANNELS 3 Xrotation Yrotation Zrotation
				JOINT LeftForeArm
				{
					OFFSET 11.52135 0.00000 0.00000
					CHANNELS 3 Yrotation Zrotation Xrotation
					JOINT LeftHand
					{
						OFFSET 10.17590 0.00000 0.00000
						CHANNELS 3 Xrotation Yrotation Zrotation
						End Site
						{
							OFFSET 3.93700 0.00000 0.00000
						}
						JOINT LeftHandThumb1
						{
							OFFSET 0.00000 0.00000 0.00000
							CHANNELS 3 Xrotation Zrotation Yrotation
							End Site
							{
								OFFSET 0.00000 0.00000 3.93700
							}
						}
					}
				}
			}
		}
		JOINT Head
		{
			OFFSET 0.00000 16.64604 0.00000
			CHANNELS 3 Xrotation Yrotation Zrotation
			End Site
			{
				OFFSET 0.00000 4.52755 0.00000
			}
		}
	}
}
MOTION
Frames: 7
Frame Time: 0.008333
 0.3666 37.1719 3.3270 -1.6528 -0.5366 1.2868 9.9623 -2.6466 -3.2283 -5.5287 -0.0000 -0.0000 -7.1873 -20.7073 9.8330 14.0031 0.0000 -0.0000 8.8983 0.7722 2.7786 -2.9071 -0.0000 -0.0000 -4.5088 19.2704 -13.1027 9.1663 0.0000 -0.0000 2.3178 -2.7484 -1.8312 7.2938 -5.7572 -28.2070 -25.8224 -4.4129 23.8346 15.0485 0.0000 -5.3354 -0.1384 0.9021 8.7230 32.8623 0.0000 -24.3270 18.2254 25.8511 18.1150 -62.1006 -0.5525 -27.4098 -3.1972 0.0000 43.8669 2.9753 13.8763 -12.2282 33.1476 -0.0000 26.2537 0.6026 10.3460 4.0226
 0.3666 37.1714 3.3289 -1.6573 -0.5448 1.2820 9.9706 -2.6424 -3.2250 -5.5311 -0.0000 -0.0000 -7.1839 -20.6950 9.8069 14.0177 -0.0000 -0.0000 8.9118 0.7790 2.7816 -2.9170 -0.0000 0.0000 -4.5172 19.2766 -13.0853 9.1933 0.0000 0.0000 2.3155 -2.7435 -1.8253 7.3456 -5.7896 -28.2035 -25.8764 -4.3876 23.8390 15.0530 0.0000 -5.3449 -0.1392 0.9073 8.7231 32.8623 0.0000 -24.3270 18.2511 25.8477 18.0919 -62.1153 -0.5773 -27.3968 -3.1989 0.0000 43.8640 2.9586 13.7801 -12.2423 33.1476 -0.0000 26.2537 0.6326 10.4224 4.0548
 0.3654 37.1710 3.3306 -1.6580 -0.5481 1.2833 9.9756 -2.6412 -3.2235 -5.5353 0.0000 0.0000 -7.1920 -20.7053 9.8130 13.9781 0.0000 -0.0000 8.9179 0.7867 2.7817 -2.9221 -0.0000 0.0000 -4.5147 19.2707 -13.0872 9.1791 -0.0000 0.0000 2.3085 -2.7438 -1.8433 7.3263 -5.7643 -28.1940 -25.8670 -4.4032 23.8417 15.0726 0.0000 -5.3165 -0.1400 0.9130 8.7157 32.8623 0.0000 -24.3270 18.2413 25.8561 18.1209 -62.1302 -0.5591 -27.4142 -3.2266 0.0000 43.8781 2.9707 13.7975 -12.2762 33.1476 -0.0000 26.2537 0.6732 10.3272 4.0390
 0.3644 37.1705 3.3323 -1.6615 -0.5529 1.2816 9.9806 -2.6479 -3.2208 -5.5354 0.0000 0.0000 -7.2017 -20.6871 9.8135 14.0326 -0.0000 0.0000 8.9255 0.7932 2.7852 -2.9233 0.0000 -0.0000 -4.5215 19.2629 -13.0898 9.1591 0.0000 -0.0000 2.3047 -2.7474 -1.8495 7.3302 -5.7535 -28.1952 -25.8648 -4.4009 23.8498 15.0866 0.0000 -5.3055 -0.1422 0.9263 8.7306 32.8623 0.0000 -24.3270 18.2533 25.8531 18.1159 -62.1418 -0.5702 -27.3989 -3.2316 0.0000 43.9221 2.9723 13.7873 -12.2911 33.1476 -0.0000 26.2537 0.7196 10.3166 4.0185
 0.3649 37.1701 3.3335 -1.6602 -0.5542 1.2865 9.9784 -2.6524 -3.2262 -5.5295 0.0000 -0.0000 -7.2074 -20.6847 9.8015 14.0189 0.0000 0.0000 8.9297 0.7826 2.7790 -2.9282 -0.0000 -0.0000 -4.5257 19.2862 -13.1003 9.1848 0.0000 -0.0000 2.2982 -2.7497 -1.8578 7.3549 -5.7702 -28.1827 -25.8789 -4.3669 23.8428 15.0973 0.0000 -5.3178 -0.1399 0.9171 8.6748 32.8623 0.0000 -24.3270 18.2533 25.8484 18.1135 -62.1387 -0.5806 -27.3933 -3.2506 0.0000 43.9144 2.9789 13.8046 -12.3031 33.1476 -0.0000 26.2537 0.7499 10.3137 4.0364
 0.3643 37.1697 3.3348 -1.6642 -0.5529 1.2858 9.9837 -2.6476 -3.2259 -5.5275 0.0000 -0.0000 -7.2115 -20.6887 9.8016 13.9906 0.0000 -0.0000 8.9352 0.7878 2.7806 -2.9283 -0.0000 0.0000 -4.5247 19.2738 -13.0900 9.1533 0.0000 -0.0000 2.2981 -2.7496 -1.8652 7.3756 -5.7792 -28.1738 -25.9087 -4.3629 23.8461 15.1099 0.0000 -5.3026 -0.1385 0.9102 8.6547 32.8623 0.0000 -24.3270 18.2465 25.8404 18.1246 -62.1377 -0.5889 -27.3931 -3.2588 0.0000 43.9205 2.9810 13.8182 -12.2997 33.1476 -0.0000 26.2537 0.7852 10.2960 4.0238
 0.3645 37.1693 3.3358 -1.6649 -0.5467 1.2845 9.9864 -2.6551 -3.2246 -5.5255 -0.0000 0.0000 -7.2187 -20.6818 9.8055 14.0352 0.0000 -0.0000 8.9360 0.7798 2.7832 -2.9259 -0.0000 -0.0000 -4.5334 19.2771 -13.0911 9.1838 -0.0000 0.0000 2.2939 -2.7730 -1.8593 7.3839 -5.7672 -28.1929 -25.9189 -4.3638 23.8593 15.1287 0.0000 -5.2700 -0.1389 0.9099 8.6775 32.8623 0.0000 -24.3270 18.2711 25.8408 18.0978 -62.1312 -0.6141 -27.3728 -3.2636 0.0000 43.8956 2.9803 13.7937 -12.3177 33.1476 -0.0000 26.2537 0.8154 10.3839 4.0352
